<svg xmlns="http://www.w3.org/2000/svg" xmlns:xlink="http://www.w3.org/1999/xlink" contentStyleType="text/css" data-diagram-type="DESCRIPTION" height="375px" preserveAspectRatio="none" style="width:385px;height:375px;background:#FFFFFF;" version="1.1" viewBox="0 0 385 375" width="385px" zoomAndPan="magnify"><defs/><g><!--entity input1--><g class="entity" data-entity="input1" data-source-line="11" data-uid="ent0002" id="entity_input1"><rect fill="#ADD1B2" height="36.0986" rx="2.5" ry="2.5" style="stroke:#181818;stroke-width:0.5;" width="62.8135" x="7" y="13.4749"/><text fill="#000000" font-family="Arial" font-size="14" lengthAdjust="spacing" textLength="42.8135" x="17" y="36.6067">Input 1</text></g><!--entity input4--><g class="entity" data-entity="input4" data-source-line="12" data-uid="ent0003" id="entity_input4"><rect fill="#ADD1B2" height="36.0986" rx="2.5" ry="2.5" style="stroke:#181818;stroke-width:0.5;" width="62.8135" x="7" y="333.4749"/><text fill="#000000" font-family="Arial" font-size="14" lengthAdjust="spacing" textLength="42.8135" x="17" y="356.6067">Input 4</text></g><!--entity input3--><g class="entity" data-entity="input3" data-source-line="13" data-uid="ent0004" id="entity_input3"><rect fill="#ADD1B2" height="36.0986" rx="2.5" ry="2.5" style="stroke:#181818;stroke-width:0.5;" width="62.8135" x="7" y="201.4749"/><text fill="#000000" font-family="Arial" font-size="14" lengthAdjust="spacing" textLength="42.8135" x="17" y="224.6067">Input 3</text></g><!--entity input2--><g class="entity" data-entity="input2" data-source-line="14" data-uid="ent0005" id="entity_input2"><rect fill="#ADD1B2" height="36.0986" rx="2.5" ry="2.5" style="stroke:#181818;stroke-width:0.5;" width="62.8135" x="7" y="99.4749"/><text fill="#000000" font-family="Arial" font-size="14" lengthAdjust="spacing" textLength="42.8135" x="17" y="122.6067">Input 2</text></g><!--entity hidden1--><g class="entity" data-entity="hidden1" data-source-line="16" data-uid="ent0006" id="entity_hidden1"><ellipse cx="202.5369" cy="157.5207" fill="#F1F1F1" rx="47.7269" ry="25.1658" style="stroke:#181818;stroke-width:0.5;"/><text fill="#000000" font-family="Arial" font-size="14" lengthAdjust="spacing" textLength="57.5928" x="173.7405" y="153.1587">Neuron 1</text><text fill="#000000" font-family="Arial" font-size="14" lengthAdjust="spacing" textLength="61.0791" x="173.9421" y="169.2573">sum + act</text></g><!--entity hidden2--><g class="entity" data-entity="hidden2" data-source-line="17" data-uid="ent0007" id="entity_hidden2"><ellipse cx="202.5369" cy="272.5207" fill="#F1F1F1" rx="47.7269" ry="25.1658" style="stroke:#181818;stroke-width:0.5;"/><text fill="#000000" font-family="Arial" font-size="14" lengthAdjust="spacing" textLength="57.5928" x="173.7405" y="268.1587">Neuron 2</text><text fill="#000000" font-family="Arial" font-size="14" lengthAdjust="spacing" textLength="61.0791" x="173.9421" y="284.2573">sum + act</text></g><!--entity output1--><g class="entity" data-entity="output1" data-source-line="19" data-uid="ent0008" id="entity_output1"><rect fill="#A9DCDF" height="36.0986" rx="2.5" ry="2.5" style="stroke:#181818;stroke-width:0.5;" width="68.248" x="311.27" y="149.4749"/><text fill="#000000" font-family="Arial" font-size="14" lengthAdjust="spacing" textLength="48.248" x="321.27" y="172.6067">Sortie 1</text></g><!--entity output2--><g class="entity" data-entity="output2" data-source-line="20" data-uid="ent0009" id="entity_output2"><rect fill="#A9DCDF" height="36.0986" rx="2.5" ry="2.5" style="stroke:#181818;stroke-width:0.5;" width="68.248" x="311.27" y="233.4749"/><text fill="#000000" font-family="Arial" font-size="14" lengthAdjust="spacing" textLength="48.248" x="321.27" y="256.6067">Sortie 2</text></g><!--link input1 to hidden1--><g class="link" data-entity-1="input1" data-entity-2="hidden1" data-source-line="22" data-uid="lnk10" id="link_input1_hidden1"><path d="M70.13,23.4449 C87.28,20.6649 108.42,20.2449 124.81,29.5249 C163.59,51.4949 183.0583,96.0113 192.8683,126.6113" fill="none" id="input1-to-hidden1" style="stroke:#181818;stroke-width:1;"/><polygon fill="#181818" points="194.7,132.3249,195.7615,122.5334,193.1736,127.5636,188.1434,124.9757,194.7,132.3249" style="stroke:#181818;stroke-width:1;"/><text fill="#0000FF" font-family="Arial" font-size="13" lengthAdjust="spacing" textLength="23.8481" x="100.81" y="19.4487">w11</text></g><!--link input2 to hidden1--><g class="link" data-entity-1="input2" data-entity-2="hidden1" data-source-line="23" data-uid="lnk11" id="link_input2_hidden1"><path d="M70.28,125.1449 C95.37,131.3349 125.195,138.6864 153.015,145.5564" fill="none" id="input2-to-hidden1" style="stroke:#181818;stroke-width:1;"/><polygon fill="#181818" points="158.84,146.9949,151.0614,140.9539,153.9858,145.7962,149.1435,148.7205,158.84,146.9949" style="stroke:#181818;stroke-width:1;"/><text fill="#0000FF" font-family="Arial" font-size="13" lengthAdjust="spacing" textLength="23.8481" x="100.81" y="129.9587">w12</text></g><!--link input3 to hidden1--><g class="link" data-entity-1="input3" data-entity-2="hidden1" data-source-line="24" data-uid="lnk12" id="link_input3_hidden1"><path d="M70.28,207.7149 C96.65,197.6349 129.0957,185.2278 157.4457,174.3878" fill="none" id="input3-to-hidden1" style="stroke:#181818;stroke-width:1;"/><polygon fill="#181818" points="163.05,172.2449,153.215,171.723,158.3798,174.0306,156.0721,179.1954,163.05,172.2449" style="stroke:#181818;stroke-width:1;"/><text fill="#0000FF" font-family="Arial" font-size="13" lengthAdjust="spacing" textLength="23.8481" x="100.81" y="185.7187">w13</text></g><!--link input4 to hidden1--><g class="link" data-entity-1="input4" data-entity-2="hidden1" data-source-line="25" data-uid="lnk13" id="link_input4_hidden1"><path d="M48.79,333.2449 C59.68,312.8249 78.86,279.2549 99.81,253.5249 C122.81,225.2749 149.2059,201.0579 170.9159,182.6279" fill="none" id="input4-to-hidden1" style="stroke:#181818;stroke-width:1;"/><polygon fill="#181818" points="175.49,178.7449,166.0402,181.52,171.6783,181.9807,171.2176,187.6188,175.49,178.7449" style="stroke:#181818;stroke-width:1;"/><text fill="#0000FF" font-family="Arial" font-size="13" lengthAdjust="spacing" textLength="23.8481" x="100.81" y="225.0087">w14</text></g><!--link input1 to hidden2--><g class="link" data-entity-1="input1" data-entity-2="hidden2" data-source-line="27" data-uid="lnk14" id="link_input1_hidden2"><path d="M66.34,49.8949 C85.13,63.9549 109.48,84.9249 124.81,108.5249 C148.24,144.5949 136.28,161.7149 154.81,200.5249 C162.97,217.6049 171.0849,230.5425 180.6649,244.2025" fill="none" id="input1-to-hidden2" style="stroke:#181818;stroke-width:1;"/><polygon fill="#181818" points="184.11,249.1149,182.2172,239.4496,181.2391,245.0213,175.6674,244.0431,184.11,249.1149" style="stroke:#181818;stroke-width:1;"/><text fill="#0000FF" font-family="Arial" font-size="13" lengthAdjust="spacing" textLength="23.8481" x="100.81" y="76.7187">w21</text></g><!--link input2 to hidden2--><g class="link" data-entity-1="input2" data-entity-2="hidden2" data-source-line="28" data-uid="lnk15" id="link_input2_hidden2"><path d="M48.61,136.0649 C54.95,149.1649 63.36,167.2149 69.81,183.5249 C85.32,222.7349 65.61,248.8749 99.81,273.5249 C116.65,285.6549 133.5152,287.2572 153.2752,284.5572" fill="none" id="input2-to-hidden2" style="stroke:#181818;stroke-width:1;"/><polygon fill="#181818" points="159.22,283.7449,149.7613,281.0001,154.266,284.4218,150.8444,288.9265,159.22,283.7449" style="stroke:#181818;stroke-width:1;"/><text fill="#0000FF" font-family="Arial" font-size="13" lengthAdjust="spacing" textLength="23.8481" x="100.81" y="270.7187">w22</text></g><!--link input3 to hidden2--><g class="link" data-entity-1="input3" data-entity-2="hidden2" data-source-line="29" data-uid="lnk16" id="link_input3_hidden2"><path d="M43.4,238.0049 C50.09,263.7949 66.25,309.6649 99.81,329.5249 C128.39,346.4349 158.0469,322.709 178.5869,300.289" fill="none" id="input3-to-hidden2" style="stroke:#181818;stroke-width:1;"/><polygon fill="#181818" points="182.64,295.8649,173.611,299.7989,179.2624,299.5516,179.5097,305.2031,182.64,295.8649" style="stroke:#181818;stroke-width:1;"/><text fill="#0000FF" font-family="Arial" font-size="13" lengthAdjust="spacing" textLength="23.8481" x="100.81" y="326.7187">w23</text></g><!--link input4 to hidden2--><g class="link" data-entity-1="input4" data-entity-2="hidden2" data-source-line="30" data-uid="lnk17" id="link_input4_hidden2"><path d="M70.28,361.1249 C87.08,364.6349 107.84,366.1249 124.81,358.5249 C152.93,345.9249 171.7863,322.438 184.8963,301.678" fill="none" id="input4-to-hidden2" style="stroke:#181818;stroke-width:1;"/><polygon fill="#181818" points="188.1,296.6049,179.9124,302.0788,185.4303,300.8325,186.6765,306.3503,188.1,296.6049" style="stroke:#181818;stroke-width:1;"/><text fill="#0000FF" font-family="Arial" font-size="13" lengthAdjust="spacing" textLength="23.8481" x="100.81" y="355.7187">w24</text></g><!--link hidden1 to output1--><g class="link" data-entity-1="hidden1" data-entity-2="output1" data-source-line="32" data-uid="lnk18" id="link_hidden1_output1"><path d="M250.05,160.8249 C269.92,162.2349 286.695,163.4302 304.875,164.7202" fill="none" id="hidden1-to-output1" style="stroke:#181818;stroke-width:1;"/><polygon fill="#181818" points="310.86,165.1449,302.1657,160.5179,305.8725,164.791,301.5995,168.4978,310.86,165.1449" style="stroke:#181818;stroke-width:1;"/></g><!--link hidden2 to output1--><g class="link" data-entity-1="hidden2" data-entity-2="output1" data-source-line="33" data-uid="lnk19" id="link_hidden2_output1"><path d="M231.03,252.0349 C256.81,232.8149 290.1888,207.93 314.9888,189.45" fill="none" id="hidden2-to-output1" style="stroke:#181818;stroke-width:1;"/><polygon fill="#181818" points="319.8,185.8649,310.1932,188.0351,315.7907,188.8525,314.9733,194.4499,319.8,185.8649" style="stroke:#181818;stroke-width:1;"/></g><!--link hidden1 to output2--><g class="link" data-entity-1="hidden1" data-entity-2="output2" data-source-line="34" data-uid="lnk20" id="link_hidden1_output2"><path d="M233.07,177.2349 C257.75,193.7049 287.699,213.6948 311.829,229.7948" fill="none" id="hidden1-to-output2" style="stroke:#181818;stroke-width:1;"/><polygon fill="#181818" points="316.82,233.1249,311.5535,224.8024,312.6608,230.3498,307.1134,231.4571,316.82,233.1249" style="stroke:#181818;stroke-width:1;"/></g><!--link hidden2 to output2--><g class="link" data-entity-1="hidden2" data-entity-2="output2" data-source-line="35" data-uid="lnk21" id="link_hidden2_output2"><path d="M248.88,265.7649 C269.15,262.7449 286.6654,260.1287 305.2654,257.3587" fill="none" id="hidden2-to-output2" style="stroke:#181818;stroke-width:1;"/><polygon fill="#181818" points="311.2,256.4749,301.709,253.8442,306.2545,257.2114,302.8874,261.757,311.2,256.4749" style="stroke:#181818;stroke-width:1;"/></g><!--SRC=[VT0zQm9140RWElCh1Yr3YXrD4H71U0XfRDAcMUz6RydTZkn738JyzsXOJvCzxPRPP-2TrxyRkzDEjzYAbR9sqZ9kTECPVFVbQrt9tjXjzbFnHiScBCM6bJvipftH3JIy2HW4dTdM0IlZk0n6B5mi7aVQRXkUJjTSwmyZRZR3BxXp4csr46VP8Jt2Dq17SV1YTp6W6g3sQ8vlXSDvKQXdojNuhCRNrUYiHjSLdHLr2gBdKli3Md5qOb6zMVInnNlKPVZTg4rLiLMPf2kI_bpxAYuOJkTA3EdUfs9HB7iSNJZg7AIU7XvcfpWu3FmP9kicCavmhnIaosuOWjJH3JE2rFODC-u9HFyGzGJAJ4-WpFG4oimXq2dgKQMQuQJpsQMZ7aVm0m00]--></g></svg>