<svg xmlns="http://www.w3.org/2000/svg" xmlns:xlink="http://www.w3.org/1999/xlink" contentStyleType="text/css" data-diagram-type="DESCRIPTION" height="374px" preserveAspectRatio="none" style="width:446px;height:374px;background:#FFFFFF;" version="1.1" viewBox="0 0 446 374" width="446px" zoomAndPan="magnify"><defs/><g><!--entity input3--><g class="entity" data-entity="input3" data-source-line="7" data-uid="ent0002" id="entity_input3"><rect fill="#F1F1F1" height="36.0986" rx="2.5" ry="2.5" style="stroke:#181818;stroke-width:0.5;" width="72.9238" x="7" y="12.5649"/><text fill="#000000" font-family="Arial" font-size="14" lengthAdjust="spacing" textLength="52.9238" x="17" y="35.6967">Entr&#233;e 3</text></g><!--entity input4--><g class="entity" data-entity="input4" data-source-line="8" data-uid="ent0003" id="entity_input4"><rect fill="#F1F1F1" height="36.0986" rx="2.5" ry="2.5" style="stroke:#181818;stroke-width:0.5;" width="72.9238" x="7" y="332.5649"/><text fill="#000000" font-family="Arial" font-size="14" lengthAdjust="spacing" textLength="52.9238" x="17" y="355.6967">Entr&#233;e 4</text></g><!--entity input1--><g class="entity" data-entity="input1" data-source-line="9" data-uid="ent0004" id="entity_input1"><rect fill="#F1F1F1" height="36.0986" rx="2.5" ry="2.5" style="stroke:#181818;stroke-width:0.5;" width="72.9238" x="7" y="200.5649"/><text fill="#000000" font-family="Arial" font-size="14" lengthAdjust="spacing" textLength="52.9238" x="17" y="223.6967">Entr&#233;e 1</text></g><!--entity input2--><g class="entity" data-entity="input2" data-source-line="10" data-uid="ent0005" id="entity_input2"><rect fill="#F1F1F1" height="36.0986" rx="2.5" ry="2.5" style="stroke:#181818;stroke-width:0.5;" width="72.9238" x="7" y="98.5649"/><text fill="#000000" font-family="Arial" font-size="14" lengthAdjust="spacing" textLength="52.9238" x="17" y="121.6967">Entr&#233;e 2</text></g><!--entity hidden1--><g class="entity" data-entity="hidden1" data-source-line="12" data-uid="ent0006" id="entity_hidden1"><ellipse cx="237.92" cy="151.6149" fill="#F1F1F1" rx="8" ry="8" style="stroke:#181818;stroke-width:0.5;"/><text fill="#000000" font-family="Arial" font-size="14" lengthAdjust="spacing" textLength="65.3789" x="172.7598" y="181.7467">Neurone 1</text><text fill="#000000" font-family="Arial" font-size="14" lengthAdjust="spacing" textLength="130.3203" x="172.7598" y="197.8454">(somme + activation)</text></g><!--entity hidden2--><g class="entity" data-entity="hidden2" data-source-line="13" data-uid="ent0007" id="entity_hidden2"><ellipse cx="237.92" cy="276.6149" fill="#F1F1F1" rx="8" ry="8" style="stroke:#181818;stroke-width:0.5;"/><text fill="#000000" font-family="Arial" font-size="14" lengthAdjust="spacing" textLength="65.3789" x="172.7598" y="306.7467">Neurone 2</text><text fill="#000000" font-family="Arial" font-size="14" lengthAdjust="spacing" textLength="130.3203" x="172.7598" y="322.8454">(somme + activation)</text></g><!--entity output1--><g class="entity" data-entity="output1" data-source-line="15" data-uid="ent0008" id="entity_output1"><rect fill="#F1F1F1" height="36.0986" rx="2.5" ry="2.5" style="stroke:#181818;stroke-width:0.5;" width="68.248" x="371.92" y="147.5649"/><text fill="#000000" font-family="Arial" font-size="14" lengthAdjust="spacing" textLength="48.248" x="381.92" y="170.6967">Sortie 1</text></g><!--entity output2--><g class="entity" data-entity="output2" data-source-line="16" data-uid="ent0009" id="entity_output2"><rect fill="#F1F1F1" height="36.0986" rx="2.5" ry="2.5" style="stroke:#181818;stroke-width:0.5;" width="68.248" x="371.92" y="231.5649"/><text fill="#000000" font-family="Arial" font-size="14" lengthAdjust="spacing" textLength="48.248" x="381.92" y="254.6967">Sortie 2</text></g><!--link input1 to hidden1--><g class="link" data-entity-1="input1" data-entity-2="hidden1" data-source-line="18" data-uid="lnk10" id="link_input1_hidden1"><path d="M80.21,206.1749 C126.52,190.0449 198.5933,164.9568 223.3933,156.3268" fill="none" id="input1-to-hidden1" style="stroke:#181818;stroke-width:1;"/><polygon fill="#181818" points="229.06,154.3549,219.2453,153.535,224.3377,155.9982,221.8746,161.0906,229.06,154.3549" style="stroke:#181818;stroke-width:1;"/><text fill="#FF0000" font-family="Arial" font-size="13" lengthAdjust="spacing" textLength="23.8481" x="110.92" y="184.3187">w11</text></g><!--link input2 to hidden1--><g class="link" data-entity-1="input2" data-entity-2="hidden1" data-source-line="19" data-uid="lnk11" id="link_input2_hidden1"><path d="M80.21,123.1149 C126.52,131.5349 198.3568,144.6014 223.1568,149.1114" fill="none" id="input2-to-hidden1" style="stroke:#181818;stroke-width:1;"/><polygon fill="#181818" points="229.06,150.1849,220.9209,144.6391,224.1407,149.2903,219.4895,152.5101,229.06,150.1849" style="stroke:#181818;stroke-width:1;"/><text fill="#FF0000" font-family="Arial" font-size="13" lengthAdjust="spacing" textLength="23.8481" x="110.92" y="126.1287">w12</text></g><!--link input3 to hidden1--><g class="link" data-entity-1="input3" data-entity-2="hidden1" data-source-line="20" data-uid="lnk12" id="link_input3_hidden1"><path d="M80.36,22.6249 C97.62,20.5449 118.15,20.7349 134.92,28.6149 C187.15,53.1549 219.2925,113.5826 230.4725,137.4226" fill="none" id="input3-to-hidden1" style="stroke:#181818;stroke-width:1;"/><polygon fill="#181818" points="233.02,142.8549,232.8202,133.0081,230.8971,138.328,225.5772,136.4048,233.02,142.8549" style="stroke:#181818;stroke-width:1;"/><text fill="#FF0000" font-family="Arial" font-size="13" lengthAdjust="spacing" textLength="23.8481" x="110.92" y="19.4487">w13</text></g><!--link input4 to hidden1--><g class="link" data-entity-1="input4" data-entity-2="hidden1" data-source-line="21" data-uid="lnk13" id="link_input4_hidden1"><path d="M54.31,332.4349 C65.98,311.8049 86.79,277.7549 109.92,252.6149 C149.41,209.7049 203.0399,173.4102 224.0499,159.8402" fill="none" id="input4-to-hidden1" style="stroke:#181818;stroke-width:1;"/><polygon fill="#181818" points="229.09,156.5849,219.3596,158.1078,224.8899,159.2977,223.7,164.828,229.09,156.5849" style="stroke:#181818;stroke-width:1;"/><text fill="#FF0000" font-family="Arial" font-size="13" lengthAdjust="spacing" textLength="23.8481" x="110.92" y="227.9387">w14</text></g><!--link input1 to hidden2--><g class="link" data-entity-1="input1" data-entity-2="hidden2" data-source-line="23" data-uid="lnk14" id="link_input1_hidden2"><path d="M49.28,237.1449 C57.12,263.0049 75.34,308.9549 109.92,328.6149 C152.59,352.8749 204.538,308.6176 224.868,288.7576" fill="none" id="input1-to-hidden2" style="stroke:#181818;stroke-width:1;"/><polygon fill="#181818" points="229.16,284.5649,219.9269,287.9927,225.5834,288.0588,225.5172,293.7153,229.16,284.5649" style="stroke:#181818;stroke-width:1;"/><text fill="#FF0000" font-family="Arial" font-size="13" lengthAdjust="spacing" textLength="23.8481" x="110.92" y="325.8087">w21</text></g><!--link input2 to hidden2--><g class="link" data-entity-1="input2" data-entity-2="hidden2" data-source-line="24" data-uid="lnk15" id="link_input2_hidden2"><path d="M55.42,134.9649 C62.92,147.9849 72.76,166.0149 79.92,182.6149 C96.63,221.3249 76.11,247.4249 109.92,272.6149 C146.72,300.0249 201.8089,287.2452 223.3289,280.8452" fill="none" id="input2-to-hidden2" style="stroke:#181818;stroke-width:1;"/><polygon fill="#181818" points="229.08,279.1349,219.3132,277.8664,224.2874,280.5602,221.5936,285.5345,229.08,279.1349" style="stroke:#181818;stroke-width:1;"/><text fill="#FF0000" font-family="Arial" font-size="13" lengthAdjust="spacing" textLength="23.8481" x="110.92" y="269.8087">w22</text></g><!--link input3 to hidden2--><g class="link" data-entity-1="input3" data-entity-2="hidden2" data-source-line="25" data-uid="lnk16" id="link_input3_hidden2"><path d="M75.54,48.9049 C95.28,62.0449 119.87,81.4849 134.92,104.6149 C162.33,146.7349 138.22,171.0549 164.92,213.6149 C182.05,240.9149 209.4661,259.8605 224.2061,268.9705" fill="none" id="input3-to-hidden2" style="stroke:#181818;stroke-width:1;"/><polygon fill="#181818" points="229.31,272.1249,223.7571,263.9907,225.0568,269.4962,219.5512,270.7958,229.31,272.1249" style="stroke:#181818;stroke-width:1;"/><text fill="#FF0000" font-family="Arial" font-size="13" lengthAdjust="spacing" textLength="23.8481" x="110.92" y="72.9587">w23</text></g><!--link input4 to hidden2--><g class="link" data-entity-1="input4" data-entity-2="hidden2" data-source-line="26" data-uid="lnk17" id="link_input4_hidden2"><path d="M80.12,361.1649 C97.13,364.4549 117.52,365.8049 134.92,359.6149 C177.3,344.5549 211.0249,308.1392 226.0849,290.0192" fill="none" id="input4-to-hidden2" style="stroke:#181818;stroke-width:1;"/><polygon fill="#181818" points="229.92,285.4049,221.0911,289.7697,226.7241,289.2502,227.2436,294.8831,229.92,285.4049" style="stroke:#181818;stroke-width:1;"/><text fill="#FF0000" font-family="Arial" font-size="13" lengthAdjust="spacing" textLength="23.8481" x="110.92" y="356.8087">w24</text></g><!--link hidden1 to output1--><g class="link" data-entity-1="hidden1" data-entity-2="output1" data-source-line="28" data-uid="lnk18" id="link_hidden1_output1"><path d="M246.49,152.2549 C268.27,154.0849 326.0411,158.9621 365.7611,162.3021" fill="none" id="hidden1-to-output1" style="stroke:#181818;stroke-width:1;"/><polygon fill="#181818" points="371.74,162.8049,363.1068,158.0648,366.7576,162.3859,362.4365,166.0367,371.74,162.8049" style="stroke:#181818;stroke-width:1;"/></g><!--link hidden2 to output1--><g class="link" data-entity-1="hidden2" data-entity-2="output1" data-source-line="29" data-uid="lnk19" id="link_hidden2_output1"><path d="M246.49,271.5549 C269.34,256.2849 333.4614,213.4487 372.4714,187.3787" fill="none" id="hidden2-to-output1" style="stroke:#181818;stroke-width:1;"/><polygon fill="#181818" points="377.46,184.0449,367.7546,185.7199,373.3029,186.8231,372.1997,192.3713,377.46,184.0449" style="stroke:#181818;stroke-width:1;"/></g><!--link hidden1 to output2--><g class="link" data-entity-1="hidden1" data-entity-2="output2" data-source-line="30" data-uid="lnk20" id="link_hidden1_output2"><path d="M246.49,156.0849 C268.65,169.1449 329.1019,204.8168 368.6419,228.1368" fill="none" id="hidden1-to-output2" style="stroke:#181818;stroke-width:1;"/><polygon fill="#181818" points="373.81,231.1849,368.0899,223.1674,369.5032,228.6448,364.0258,230.0582,373.81,231.1849" style="stroke:#181818;stroke-width:1;"/></g><!--link hidden2 to output2--><g class="link" data-entity-1="hidden2" data-entity-2="output2" data-source-line="31" data-uid="lnk21" id="link_hidden2_output2"><path d="M246.49,275.3849 C268.27,271.8449 326.0978,262.4481 365.8178,255.9881" fill="none" id="hidden2-to-output2" style="stroke:#181818;stroke-width:1;"/><polygon fill="#181818" points="371.74,255.0249,362.2146,252.5215,366.8048,255.8275,363.4988,260.4178,371.74,255.0249" style="stroke:#181818;stroke-width:1;"/></g><!--SRC=[XP0nJiGm44LxdsAqD22qHIQfja2YMCfjQ6b6iPDO91vaJrYkn3cu60uXP3UnGXVblMyzExnQzqQUEkZOSTbuxWnKr0QZmXyA3Ma-MrUlY3OLzQqyiPCJnUMZjzIgrbG2mk1jtGXewqqfbfrImmUvkZMmEphnNvy6yXrGW7XUBtcA5pClKZoRUPRYE7DKghI-7EZ9z9vTNB-usy1TBBy7Yf7lD8JU_MmQgxLnsMg3_sxmwgRFxCLEeTpBilINumMF1umtWlt-OGg16p4VSl16mm7EMJOgkA7WgEGRIZugnOPI96Bmsi54p599n2oLHCnIYJ5JvI1Dppd9wt-N7YOyLDy0]--></g></svg>