<svg xmlns="http://www.w3.org/2000/svg" xmlns:xlink="http://www.w3.org/1999/xlink" contentStyleType="text/css" data-diagram-type="DESCRIPTION" height="312px" preserveAspectRatio="none" style="width:474px;height:312px;background:#FFFFFF;" version="1.1" viewBox="0 0 474 312" width="474px" zoomAndPan="magnify"><defs/><g><!--entity input3--><g class="entity" data-entity="input3" data-source-line="6" data-uid="ent0002" id="entity_input3"><rect fill="#F1F1F1" height="36.0986" rx="2.5" ry="2.5" style="stroke:#181818;stroke-width:0.5;" width="72.9238" x="279.79" y="7"/><text fill="#000000" font-family="Arial" font-size="14" lengthAdjust="spacing" textLength="52.9238" x="289.79" y="30.1318">Entr&#233;e 3</text></g><!--entity input4--><g class="entity" data-entity="input4" data-source-line="7" data-uid="ent0003" id="entity_input4"><rect fill="#F1F1F1" height="36.0986" rx="2.5" ry="2.5" style="stroke:#181818;stroke-width:0.5;" width="72.9238" x="155.79" y="7"/><text fill="#000000" font-family="Arial" font-size="14" lengthAdjust="spacing" textLength="52.9238" x="165.79" y="30.1318">Entr&#233;e 4</text></g><!--entity input1--><g class="entity" data-entity="input1" data-source-line="8" data-uid="ent0004" id="entity_input1"><rect fill="#F1F1F1" height="36.0986" rx="2.5" ry="2.5" style="stroke:#181818;stroke-width:0.5;" width="72.9238" x="14.79" y="7"/><text fill="#000000" font-family="Arial" font-size="14" lengthAdjust="spacing" textLength="52.9238" x="24.79" y="30.1318">Entr&#233;e 1</text></g><!--entity input2--><g class="entity" data-entity="input2" data-source-line="9" data-uid="ent0005" id="entity_input2"><rect fill="#F1F1F1" height="36.0986" rx="2.5" ry="2.5" style="stroke:#181818;stroke-width:0.5;" width="72.9238" x="395.79" y="7"/><text fill="#000000" font-family="Arial" font-size="14" lengthAdjust="spacing" textLength="52.9238" x="405.79" y="30.1318">Entr&#233;e 2</text></g><!--entity hidden1--><g class="entity" data-entity="hidden1" data-source-line="11" data-uid="ent0006" id="entity_hidden1"><ellipse cx="121.25" cy="164.1" fill="#F1F1F1" rx="8" ry="8" style="stroke:#181818;stroke-width:0.5;"/><text fill="#000000" font-family="Arial" font-size="14" lengthAdjust="spacing" textLength="65.3789" x="56.0898" y="194.2318">Neurone 1</text><text fill="#000000" font-family="Arial" font-size="14" lengthAdjust="spacing" textLength="130.3203" x="56.0898" y="210.3305">(somme + activation)</text></g><!--entity hidden2--><g class="entity" data-entity="hidden2" data-source-line="12" data-uid="ent0007" id="entity_hidden2"><ellipse cx="302.25" cy="164.1" fill="#F1F1F1" rx="8" ry="8" style="stroke:#181818;stroke-width:0.5;"/><text fill="#000000" font-family="Arial" font-size="14" lengthAdjust="spacing" textLength="65.3789" x="237.0898" y="194.2318">Neurone 2</text><text fill="#000000" font-family="Arial" font-size="14" lengthAdjust="spacing" textLength="130.3203" x="237.0898" y="210.3305">(somme + activation)</text></g><!--entity output1--><g class="entity" data-entity="output1" data-source-line="14" data-uid="ent0008" id="entity_output1"><rect fill="#F1F1F1" height="36.0986" rx="2.5" ry="2.5" style="stroke:#181818;stroke-width:0.5;" width="68.248" x="126.13" y="270.1"/><text fill="#000000" font-family="Arial" font-size="14" lengthAdjust="spacing" textLength="48.248" x="136.13" y="293.2318">Sortie 1</text></g><!--entity output2--><g class="entity" data-entity="output2" data-source-line="15" data-uid="ent0009" id="entity_output2"><rect fill="#F1F1F1" height="36.0986" rx="2.5" ry="2.5" style="stroke:#181818;stroke-width:0.5;" width="68.248" x="234.13" y="270.1"/><text fill="#000000" font-family="Arial" font-size="14" lengthAdjust="spacing" textLength="48.248" x="244.13" y="293.2318">Sortie 2</text></g><!--link input1 to hidden1--><g class="link" data-entity-1="input1" data-entity-2="hidden1" data-source-line="17" data-uid="lnk10" id="link_input1_hidden1"><path d="M30.26,43.46 C17.84,55.98 6,73.36 14.25,89.1 C35.64,129.91 85.228,150.6846 106.788,158.2446" fill="none" id="input1-to-hidden1" style="stroke:#181818;stroke-width:1;"/><polygon fill="#181818" points="112.45,160.23,105.2806,153.4773,107.7317,158.5755,102.6334,161.0266,112.45,160.23" style="stroke:#181818;stroke-width:1;"/><text fill="#FF0000" font-family="Arial" font-size="13" lengthAdjust="spacing" textLength="23.8481" x="15.25" y="86.2938">w11</text></g><!--link input2 to hidden1--><g class="link" data-entity-1="input2" data-entity-2="hidden1" data-source-line="18" data-uid="lnk11" id="link_input2_hidden1"><path d="M412.71,43.58 C395.75,57.88 369.96,77.54 344.25,89.1 C289.38,113.78 269.03,99.21 212.25,119.1 C180.78,130.12 151.1201,146.0619 135.2201,155.0719" fill="none" id="input2-to-hidden1" style="stroke:#181818;stroke-width:1;"/><polygon fill="#181818" points="130,158.03,139.8022,157.073,134.3501,155.5649,135.8581,150.1128,130,158.03" style="stroke:#181818;stroke-width:1;"/><text fill="#FF0000" font-family="Arial" font-size="13" lengthAdjust="spacing" textLength="23.8481" x="373.77" y="86.2938">w12</text></g><!--link input3 to hidden1--><g class="link" data-entity-1="input3" data-entity-2="hidden1" data-source-line="19" data-uid="lnk12" id="link_input3_hidden1"><path d="M279.42,35.13 C230.35,47.36 149.08,68.19 144.25,73.1 C121.75,95.98 120.1614,131.6824 120.6514,149.1124" fill="none" id="input3-to-hidden1" style="stroke:#181818;stroke-width:1;"/><polygon fill="#181818" points="120.82,155.11,124.5655,146.0011,120.6795,150.112,116.5687,146.226,120.82,155.11" style="stroke:#181818;stroke-width:1;"/><text fill="#FF0000" font-family="Arial" font-size="13" lengthAdjust="spacing" textLength="23.8481" x="145.25" y="86.2938">w13</text></g><!--link input4 to hidden1--><g class="link" data-entity-1="input4" data-entity-2="hidden1" data-source-line="20" data-uid="lnk13" id="link_input4_hidden1"><path d="M155.49,30.68 C129.39,36.1 96.11,47.82 79.25,73.1 C60.5,101.22 90.705,134.934 107.945,151.114" fill="none" id="input4-to-hidden1" style="stroke:#181818;stroke-width:1;"/><polygon fill="#181818" points="112.32,155.22,108.4948,146.1443,108.6742,151.7983,103.0202,151.9777,112.32,155.22" style="stroke:#181818;stroke-width:1;"/><text fill="#FF0000" font-family="Arial" font-size="13" lengthAdjust="spacing" textLength="23.8481" x="80.25" y="86.2938">w14</text></g><!--link input1 to hidden2--><g class="link" data-entity-1="input1" data-entity-2="hidden2" data-source-line="22" data-uid="lnk14" id="link_input1_hidden2"><path d="M88.03,37.64 C112.78,46.05 145.79,58.5 173.25,73.1 C221.47,98.74 268.4268,135.4622 288.6968,151.9622" fill="none" id="input1-to-hidden2" style="stroke:#181818;stroke-width:1;"/><polygon fill="#181818" points="293.35,155.75,288.8953,146.9662,289.4723,152.5935,283.8449,153.1705,293.35,155.75" style="stroke:#181818;stroke-width:1;"/><text fill="#FF0000" font-family="Arial" font-size="13" lengthAdjust="spacing" textLength="23.8481" x="200.3" y="86.2938">w21</text></g><!--link input2 to hidden2--><g class="link" data-entity-1="input2" data-entity-2="hidden2" data-source-line="23" data-uid="lnk15" id="link_input2_hidden2"><path d="M437.16,43.6 C439.87,56.99 441.25,75.39 433.25,89.1 C405.73,136.25 341.684,154.4244 316.944,159.9844" fill="none" id="input2-to-hidden2" style="stroke:#181818;stroke-width:1;"/><polygon fill="#181818" points="311.09,161.3,320.7481,163.2292,315.9683,160.2037,318.9939,155.4239,311.09,161.3" style="stroke:#181818;stroke-width:1;"/><text fill="#FF0000" font-family="Arial" font-size="13" lengthAdjust="spacing" textLength="23.8481" x="439.57" y="86.2938">w22</text></g><!--link input3 to hidden2--><g class="link" data-entity-1="input3" data-entity-2="hidden2" data-source-line="24" data-uid="lnk16" id="link_input3_hidden2"><path d="M314.48,43.41 C311.42,73.37 305.8691,127.691 303.6691,149.251" fill="none" id="input3-to-hidden2" style="stroke:#181818;stroke-width:1;"/><polygon fill="#181818" points="303.06,155.22,307.953,146.6725,303.5676,150.2458,299.9943,145.8604,303.06,155.22" style="stroke:#181818;stroke-width:1;"/><text fill="#FF0000" font-family="Arial" font-size="13" lengthAdjust="spacing" textLength="23.8481" x="312.32" y="86.2938">w23</text></g><!--link input4 to hidden2--><g class="link" data-entity-1="input4" data-entity-2="hidden2" data-source-line="25" data-uid="lnk17" id="link_input4_hidden2"><path d="M210.4,43.31 C219.16,51.95 229.61,62.76 238.25,73.1 C262.35,101.94 283.8169,134.322 294.0769,150.292" fill="none" id="input4-to-hidden2" style="stroke:#181818;stroke-width:1;"/><polygon fill="#181818" points="297.32,155.34,295.8207,145.6059,294.6174,151.1333,289.09,149.9301,297.32,155.34" style="stroke:#181818;stroke-width:1;"/><text fill="#FF0000" font-family="Arial" font-size="13" lengthAdjust="spacing" textLength="23.8481" x="250.57" y="86.2938">w24</text></g><!--link hidden1 to output1--><g class="link" data-entity-1="hidden1" data-entity-2="output1" data-source-line="27" data-uid="lnk18" id="link_hidden1_output1"><path d="M123.69,172.74 C129.83,191.94 144.2033,236.9348 152.8333,263.9348" fill="none" id="hidden1-to-output1" style="stroke:#181818;stroke-width:1;"/><polygon fill="#181818" points="154.66,269.65,155.73,259.8594,153.1377,264.8874,148.1098,262.2951,154.66,269.65" style="stroke:#181818;stroke-width:1;"/></g><!--link hidden2 to output1--><g class="link" data-entity-1="hidden2" data-entity-2="output1" data-source-line="28" data-uid="lnk19" id="link_hidden2_output1"><path d="M293.37,172.74 C271.02,191.94 216.5806,238.7395 185.1606,265.7395" fill="none" id="hidden2-to-output1" style="stroke:#181818;stroke-width:1;"/><polygon fill="#181818" points="180.61,269.65,190.0429,266.818,184.4022,266.3913,184.829,260.7505,180.61,269.65" style="stroke:#181818;stroke-width:1;"/></g><!--link hidden1 to output2--><g class="link" data-entity-1="hidden1" data-entity-2="output2" data-source-line="29" data-uid="lnk20" id="link_hidden1_output2"><path d="M130,172.37 C152.81,191.31 209.9332,238.7379 242.6432,265.8879" fill="none" id="hidden1-to-output2" style="stroke:#181818;stroke-width:1;"/><polygon fill="#181818" points="247.26,269.72,242.8895,260.894,243.4126,266.5266,237.78,267.0498,247.26,269.72" style="stroke:#181818;stroke-width:1;"/></g><!--link hidden2 to output2--><g class="link" data-entity-1="hidden2" data-entity-2="output2" data-source-line="30" data-uid="lnk21" id="link_hidden2_output2"><path d="M300.12,172.74 C294.77,191.94 282.2598,236.87 274.7398,263.87" fill="none" id="hidden2-to-output2" style="stroke:#181818;stroke-width:1;"/><polygon fill="#181818" points="273.13,269.65,279.3981,262.0532,274.4715,264.8333,271.6914,259.9068,273.13,269.65" style="stroke:#181818;stroke-width:1;"/></g><!--SRC=[XP2nJiCm54LtVyLJku1G1xzawe34KCOkh2nFjjjO93QoNsX_YU_Wnt099crYXTNdNElOySswTmhKGUUTLqtmdO43jT68-8TYGzgVh3lEY3O7wbj-zextb9PFmL8hH32AoHrR0wkTu_3rQQ1Q0KL8kvwh4gz7NfUu7BaiSHmv2g5iK1UwDttmBgrVtLtqNIfy059iFuYjT_S_cyPgRPoSRV3V3TwyzCK7jZdKzpmj_ULunTC5mujWitdC8R1cS-PjC1gsS99oK711mK6f5fHgKEe5fIx4uAs3XPYfKeYPAeMOgP9YSkL5oj-PvVdPjOS53yKt]--></g></svg>