<svg xmlns="http://www.w3.org/2000/svg" xmlns:xlink="http://www.w3.org/1999/xlink" contentStyleType="text/css" data-diagram-type="DESCRIPTION" height="262px" preserveAspectRatio="none" style="width:420px;height:262px;background:#FFFFFF;" version="1.1" viewBox="0 0 420 262" width="420px" zoomAndPan="magnify"><defs/><g><!--entity input3--><g class="entity" data-entity="input3" data-source-line="7" data-uid="ent0002" id="entity_input3"><rect fill="#F1F1F1" height="36.0986" rx="2.5" ry="2.5" style="stroke:#181818;stroke-width:0.5;" width="72.9238" x="7" y="149"/><text fill="#000000" font-family="Arial" font-size="14" lengthAdjust="spacing" textLength="52.9238" x="17" y="172.1318">Entr&#233;e 3</text></g><!--entity input4--><g class="entity" data-entity="input4" data-source-line="8" data-uid="ent0003" id="entity_input4"><rect fill="#F1F1F1" height="36.0986" rx="2.5" ry="2.5" style="stroke:#181818;stroke-width:0.5;" width="72.9238" x="7" y="220"/><text fill="#000000" font-family="Arial" font-size="14" lengthAdjust="spacing" textLength="52.9238" x="17" y="243.1318">Entr&#233;e 4</text></g><!--entity input1--><g class="entity" data-entity="input1" data-source-line="9" data-uid="ent0004" id="entity_input1"><rect fill="#F1F1F1" height="36.0986" rx="2.5" ry="2.5" style="stroke:#181818;stroke-width:0.5;" width="72.9238" x="7" y="7"/><text fill="#000000" font-family="Arial" font-size="14" lengthAdjust="spacing" textLength="52.9238" x="17" y="30.1318">Entr&#233;e 1</text></g><!--entity input2--><g class="entity" data-entity="input2" data-source-line="10" data-uid="ent0005" id="entity_input2"><rect fill="#F1F1F1" height="36.0986" rx="2.5" ry="2.5" style="stroke:#181818;stroke-width:0.5;" width="72.9238" x="7" y="78"/><text fill="#000000" font-family="Arial" font-size="14" lengthAdjust="spacing" textLength="52.9238" x="17" y="101.1318">Entr&#233;e 2</text></g><!--entity hidden1--><g class="entity" data-entity="hidden1" data-source-line="12" data-uid="ent0006" id="entity_hidden1"><ellipse cx="212.92" cy="69.05" fill="#F1F1F1" rx="8" ry="8" style="stroke:#181818;stroke-width:0.5;"/><text fill="#000000" font-family="Arial" font-size="14" lengthAdjust="spacing" textLength="65.3789" x="147.7598" y="99.1818">Neurone 1</text><text fill="#000000" font-family="Arial" font-size="14" lengthAdjust="spacing" textLength="130.3203" x="147.7598" y="115.2805">(somme + activation)</text></g><!--entity hidden2--><g class="entity" data-entity="hidden2" data-source-line="13" data-uid="ent0007" id="entity_hidden2"><ellipse cx="212.92" cy="194.05" fill="#F1F1F1" rx="8" ry="8" style="stroke:#181818;stroke-width:0.5;"/><text fill="#000000" font-family="Arial" font-size="14" lengthAdjust="spacing" textLength="65.3789" x="147.7598" y="224.1818">Neurone 2</text><text fill="#000000" font-family="Arial" font-size="14" lengthAdjust="spacing" textLength="130.3203" x="147.7598" y="240.2805">(somme + activation)</text></g><!--entity output1--><g class="entity" data-entity="output1" data-source-line="15" data-uid="ent0008" id="entity_output1"><rect fill="#F1F1F1" height="36.0986" rx="2.5" ry="2.5" style="stroke:#181818;stroke-width:0.5;" width="68.248" x="345.92" y="65"/><text fill="#000000" font-family="Arial" font-size="14" lengthAdjust="spacing" textLength="48.248" x="355.92" y="88.1318">Sortie 1</text></g><!--entity output2--><g class="entity" data-entity="output2" data-source-line="16" data-uid="ent0009" id="entity_output2"><rect fill="#F1F1F1" height="36.0986" rx="2.5" ry="2.5" style="stroke:#181818;stroke-width:0.5;" width="68.248" x="345.92" y="149"/><text fill="#000000" font-family="Arial" font-size="14" lengthAdjust="spacing" textLength="48.248" x="355.92" y="172.1318">Sortie 2</text></g><!--link input1 to hidden1--><g class="link" data-entity-1="input1" data-entity-2="hidden1" data-source-line="18" data-uid="lnk10" id="link_input1_hidden1"><path d="M80.39,34.49 C120.37,44.99 176.4073,59.7141 198.1973,65.4441" fill="none" id="input1-to-hidden1" style="stroke:#181818;stroke-width:1;"/><polygon fill="#181818" points="204,66.97,196.3132,60.8127,199.1644,65.6984,194.2786,68.5496,204,66.97" style="stroke:#181818;stroke-width:1;"/></g><!--link input2 to hidden1--><g class="link" data-entity-1="input2" data-entity-2="hidden1" data-source-line="19" data-uid="lnk11" id="link_input2_hidden1"><path d="M80.39,90.26 C120.37,83.81 176.2864,74.7942 198.0764,71.2842" fill="none" id="input2-to-hidden1" style="stroke:#181818;stroke-width:1;"/><polygon fill="#181818" points="204,70.33,194.4784,67.8122,199.0636,71.1252,195.7507,75.7104,204,70.33" style="stroke:#181818;stroke-width:1;"/></g><!--link input3 to hidden1--><g class="link" data-entity-1="input3" data-entity-2="hidden1" data-source-line="20" data-uid="lnk12" id="link_input3_hidden1"><path d="M75.96,148.62 C115.75,125.33 176.5713,89.7401 199.0113,76.6101" fill="none" id="input3-to-hidden1" style="stroke:#181818;stroke-width:1;"/><polygon fill="#181818" points="204.19,73.58,194.4019,74.6727,199.8745,76.1051,198.4421,81.5776,204.19,73.58" style="stroke:#181818;stroke-width:1;"/></g><!--link input4 to hidden1--><g class="link" data-entity-1="input4" data-entity-2="hidden1" data-source-line="21" data-uid="lnk13" id="link_input4_hidden1"><path d="M63.58,219.86 C68.97,214.54 74.77,208.65 79.92,203.05 C108.11,172.38 110.71,160.74 139.92,131.05 C161.67,108.95 185.5839,89.5665 199.2639,78.8665" fill="none" id="input4-to-hidden1" style="stroke:#181818;stroke-width:1;"/><polygon fill="#181818" points="203.99,75.17,194.4366,77.5641,200.0516,78.2505,199.3653,83.8655,203.99,75.17" style="stroke:#181818;stroke-width:1;"/></g><!--link input1 to hidden2--><g class="link" data-entity-1="input1" data-entity-2="hidden2" data-source-line="23" data-uid="lnk14" id="link_input1_hidden2"><path d="M63.55,43.27 C68.95,48.58 74.75,54.46 79.92,60.05 C107.99,90.37 110.96,101.59 139.92,131.05 C161.81,153.32 185.6978,173.1081 199.3378,184.0381" fill="none" id="input1-to-hidden2" style="stroke:#181818;stroke-width:1;"/><polygon fill="#181818" points="204.02,187.79,199.498,179.0406,200.1182,184.6634,194.4954,185.2836,204.02,187.79" style="stroke:#181818;stroke-width:1;"/></g><!--link input2 to hidden2--><g class="link" data-entity-1="input2" data-entity-2="hidden2" data-source-line="24" data-uid="lnk15" id="link_input2_hidden2"><path d="M75.96,114.48 C115.75,137.77 176.5713,173.3599 199.0113,186.4899" fill="none" id="input2-to-hidden2" style="stroke:#181818;stroke-width:1;"/><polygon fill="#181818" points="204.19,189.52,198.4421,181.5224,199.8745,186.9949,194.4019,188.4273,204.19,189.52" style="stroke:#181818;stroke-width:1;"/></g><!--link input3 to hidden2--><g class="link" data-entity-1="input3" data-entity-2="hidden2" data-source-line="25" data-uid="lnk16" id="link_input3_hidden2"><path d="M80.39,172.84 C120.37,179.29 176.2864,188.3058 198.0764,191.8158" fill="none" id="input3-to-hidden2" style="stroke:#181818;stroke-width:1;"/><polygon fill="#181818" points="204,192.77,195.7507,187.3896,199.0636,191.9748,194.4784,195.2878,204,192.77" style="stroke:#181818;stroke-width:1;"/></g><!--link input4 to hidden2--><g class="link" data-entity-1="input4" data-entity-2="hidden2" data-source-line="26" data-uid="lnk17" id="link_input4_hidden2"><path d="M80.39,228.61 C120.37,218.11 176.4073,203.3859 198.1973,197.6559" fill="none" id="input4-to-hidden2" style="stroke:#181818;stroke-width:1;"/><polygon fill="#181818" points="204,196.13,194.2786,194.5504,199.1644,197.4016,196.3132,202.2873,204,196.13" style="stroke:#181818;stroke-width:1;"/></g><!--link hidden1 to output1--><g class="link" data-entity-1="hidden1" data-entity-2="output1" data-source-line="28" data-uid="lnk18" id="link_hidden1_output1"><path d="M221.89,69.73 C243.86,71.59 300.2915,76.3728 339.5415,79.7028" fill="none" id="hidden1-to-output1" style="stroke:#181818;stroke-width:1;"/><polygon fill="#181818" points="345.52,80.21,336.8904,75.4635,340.5379,79.7873,336.2141,83.4348,345.52,80.21" style="stroke:#181818;stroke-width:1;"/></g><!--link hidden2 to output1--><g class="link" data-entity-1="hidden2" data-entity-2="output1" data-source-line="29" data-uid="lnk19" id="link_hidden2_output1"><path d="M221.89,188.7 C245.02,173.15 308.0009,130.8178 346.5509,104.8978" fill="none" id="hidden2-to-output1" style="stroke:#181818;stroke-width:1;"/><polygon fill="#181818" points="351.53,101.55,341.8294,103.2523,347.3807,104.3399,346.2932,109.8912,351.53,101.55" style="stroke:#181818;stroke-width:1;"/></g><!--link hidden1 to output2--><g class="link" data-entity-1="hidden1" data-entity-2="output2" data-source-line="30" data-uid="lnk20" id="link_hidden1_output2"><path d="M221.89,73.78 C244.31,87.08 303.6905,122.3273 342.7405,145.5073" fill="none" id="hidden1-to-output2" style="stroke:#181818;stroke-width:1;"/><polygon fill="#181818" points="347.9,148.57,342.2026,140.5364,343.6004,146.0178,338.119,147.4157,347.9,148.57" style="stroke:#181818;stroke-width:1;"/></g><!--link hidden2 to output2--><g class="link" data-entity-1="hidden2" data-entity-2="output2" data-source-line="31" data-uid="lnk21" id="link_hidden2_output2"><path d="M221.89,192.75 C243.86,189.16 300.3487,179.9185 339.5987,173.4985" fill="none" id="hidden2-to-output2" style="stroke:#181818;stroke-width:1;"/><polygon fill="#181818" points="345.52,172.53,335.9923,170.0353,340.5856,173.3371,337.2837,177.9303,345.52,172.53" style="stroke:#181818;stroke-width:1;"/></g><!--SRC=[XO-nRiCm34HtVGMHgKMHmRJd0XtQCKlNBeGbsq9jiP2evflo7VsnoeaJEvM0RiGztk4kV5htHPuccDXnEtYU38YFHeKR2GDfFbhNGqTZs19jEegZlB6J0oNZYxSqgj5q0iBWRJy8QEjDAvQTKlD1hXyDx5wT-9-JWNe7523bHQbBl5bvK-BLogiInvMZKgtrxKmF9dfsoVtX7W9FgVaJK2hvJNFHnxDdi5eRLsKU_DU3TqlVsOkz5kKeVvik73Sy1LmMmNx_V2jo6P5BTIurTr8UXdaOvc6OXwLcI-fPlCvPO47R_c7X3zKl]--></g></svg>